<svg width="62" height="71" viewBox="0 0 62 71" fill="none" xmlns="http://www.w3.org/2000/svg">
<path d="M30.962 70.3911L5.64245 63.3545L0 -3.17395e-06H62L56.3516 63.345L30.962 70.3911Z" fill="#4353AD"/>
<path d="M51.5161 59.3114L56.3425 5.18044H31V65.0052L51.5161 59.3114" fill="#485FB5"/>
<path d="M30.9998 48.8576L30.9657 48.8664L22.3216 46.5298L21.769 40.3328H13.9774L15.0647 52.5331L30.9641 56.9517L30.9998 56.9419V48.8576ZM11.5371 12.9506L12.2426 20.7206H30.9998V12.9506H11.5371ZM12.935 28.6773L13.6306 36.4476H30.9998V28.6773H12.935" fill="#EDEDED"/>
<path d="M49.0154 28.6775L50.4164 12.9507H30.9734V20.7207H41.9104L41.2043 28.6775H30.9734V36.4477H40.5312L39.6297 46.5254L30.9731 48.8641V56.948L46.885 52.5333L47.0015 51.2207L48.826 30.764L49.0154 28.6775Z" fill="white"/>
</svg>
