<svg width="85" height="67" viewBox="0 0 85 67" fill="none" xmlns="http://www.w3.org/2000/svg">
<path d="M73.1721 38.4733C70.2001 38.4909 67.6267 39.2415 65.4683 40.3591C64.6713 38.7004 63.8744 37.2511 63.7417 36.1688C63.5923 34.9118 63.4097 34.1434 63.5923 32.642C63.7748 31.1404 64.6049 29.0103 64.6049 28.8357C64.5882 28.6786 64.4221 27.9104 62.7122 27.8929C61.0022 27.8755 59.5244 28.2421 59.3584 28.7135C59.1923 29.1849 58.8603 30.2674 58.6444 31.3848C58.3456 33.026 55.2242 38.8399 53.4477 41.8953C52.8666 40.7081 52.3685 39.6605 52.2687 38.8223C52.1195 37.5654 51.9367 36.797 52.1195 35.2957C52.3021 33.794 53.1322 31.6641 53.1322 31.4895C53.1156 31.3324 52.9496 30.5642 51.2397 30.5467C49.5294 30.5293 48.0519 30.8959 47.8859 31.3673C47.7198 31.8387 47.5372 32.9561 47.1719 34.0386C46.8231 35.1211 42.6723 44.8285 41.5931 47.3601C41.0452 48.6521 40.5639 49.6822 40.2151 50.3805C39.8664 51.0789 40.1985 50.4329 40.1653 50.5028C39.8664 51.0964 39.7004 51.4281 39.7004 51.4281V51.4457C39.468 51.8822 39.2189 52.3011 39.1025 52.3011C39.0195 52.3011 38.8535 51.1313 39.1357 49.5252C39.75 46.1554 41.2443 40.9003 41.2279 40.7083C41.2279 40.621 41.51 39.6954 40.2647 39.2242C39.0527 38.7528 38.6212 39.5385 38.5214 39.5385C38.4218 39.5385 38.3388 39.8178 38.3388 39.8178C38.3388 39.8178 39.6836 33.8993 35.7653 33.8993C33.3081 33.8993 29.9211 36.7102 28.2442 39.2768C27.1816 39.8878 24.9236 41.1797 22.5327 42.5591C21.6196 43.0829 20.6732 43.6416 19.7766 44.1479L19.5942 43.9381C14.8457 38.613 6.0627 34.8417 6.42797 27.6834C6.56079 25.082 7.42415 18.2205 23.2968 9.90981C36.297 3.10067 46.707 4.96882 48.5166 9.12414C51.0901 15.0603 42.9546 26.0946 29.4399 27.6834C24.293 28.2945 21.5865 26.1994 20.906 25.4137C20.192 24.5931 20.0924 24.5582 19.8268 24.7153C19.3951 24.9598 19.6607 25.693 19.8268 26.1295C20.2252 27.2295 21.8855 29.1849 24.708 30.1626C27.1817 31.0181 33.2254 31.4895 40.5307 28.5215C48.716 25.1867 55.1082 15.9333 53.232 8.1988C51.3227 0.324638 38.9036 -2.25934 27.1653 2.12295C20.1753 4.74185 12.6043 8.82733 7.1585 14.1873C0.683324 20.5425 -0.346062 26.0946 0.0856159 28.3992C1.59666 36.6226 12.3718 41.9826 16.6886 45.9459C16.4728 46.0679 16.2736 46.1901 16.0909 46.2951C13.9325 47.4123 5.71404 51.9344 3.65526 56.7181C1.33084 62.1305 4.02053 66.0241 5.81366 66.5479C11.3591 68.1716 17.0373 65.2559 20.1088 60.4546C23.1636 55.6533 22.7985 49.4203 21.3873 46.5744L21.3373 46.4697L23.0308 45.4221C24.1268 44.7412 25.206 44.1126 26.1522 43.5712C25.621 45.0902 25.239 46.8885 25.0399 49.5074C24.8075 52.5804 26.0029 56.561 27.5802 58.1323C28.2775 58.8131 29.1077 58.8307 29.6224 58.8307C31.4487 58.8307 32.2789 57.2417 33.192 55.3388C34.321 53.0167 35.3172 50.328 35.3172 50.328C35.3172 50.328 34.072 57.6085 37.4756 57.6085C38.7208 57.6085 39.9661 55.915 40.5306 55.042V55.0595C40.5306 55.0595 40.5638 55.0071 40.6302 54.8849C40.6998 54.7766 40.7663 54.666 40.8294 54.5533V54.5184C41.3275 53.6105 42.4399 51.5329 44.1002 48.0934C46.2418 43.6587 48.3008 38.1066 48.3008 38.1066C48.3008 38.1066 48.5 39.4685 49.1143 41.7033C49.4794 43.0303 50.2764 44.4793 50.8907 45.8935C50.3926 46.6268 50.0937 47.046 50.0937 47.046L50.1103 47.0635C49.712 47.6221 49.2636 48.2159 48.7989 48.8094C47.1053 50.9394 45.0798 53.3664 44.8141 54.0648C44.4987 54.8852 44.5651 55.4963 45.1794 55.9853C45.6277 56.3345 46.4246 56.4042 47.2714 56.3345C48.7989 56.2296 49.8614 55.8282 50.3927 55.5836C51.2229 55.2693 52.1693 54.7979 53.0824 54.0996C54.7427 52.8077 55.7555 50.9745 55.6559 48.5302C55.6061 47.1858 55.191 45.8589 54.6763 44.6019C54.8257 44.3749 54.9753 44.1477 55.1246 43.9035C57.7479 39.8702 59.7734 35.4357 59.7734 35.4357C59.7734 35.4357 59.9727 36.7975 60.587 39.0323C60.9023 40.1672 61.5334 41.407 62.0979 42.6291C59.6406 44.7417 58.0965 47.186 57.5652 48.7923C56.5857 51.7604 57.3494 53.1047 58.7939 53.419C59.4412 53.5587 60.3712 53.2444 61.0683 52.9301C61.9317 52.6333 62.9777 52.1268 63.9408 51.3763C65.6011 50.0843 67.195 48.286 67.112 45.8591C67.0622 44.7417 66.7799 43.6418 66.398 42.5942C68.49 41.6863 71.1962 41.1625 74.6331 41.599C82.0215 42.5069 83.4825 47.3606 83.2005 49.3859C82.9182 51.4113 81.3741 52.5286 80.8593 52.8778C80.3446 53.2095 80.1785 53.3319 80.2284 53.5761C80.2948 53.943 80.5272 53.9253 80.9755 53.8557C81.5898 53.7507 84.8606 52.197 84.9934 48.4609C85.1927 43.6589 80.8593 38.4211 73.1721 38.4733V38.4733ZM16.1905 58.6737C13.7499 61.4847 10.3131 62.5497 8.85201 61.6418C7.27472 60.6816 7.88887 56.5437 10.8942 53.5581C12.7205 51.7424 15.0947 50.0663 16.6554 49.0362C17.0041 48.8092 17.5354 48.4777 18.1663 48.0759C18.2659 48.0063 18.3323 47.9712 18.3323 47.9712C18.4485 47.9013 18.5814 47.814 18.7142 47.7267C19.8266 51.9868 18.764 55.7231 16.1905 58.6737V58.6737ZM34.0388 45.911C33.192 48.0934 31.3989 53.6978 30.3197 53.3836C29.3898 53.1217 28.8254 48.879 30.1369 44.6888C30.801 42.5761 32.2123 40.0621 33.0424 39.0842C34.3874 37.5128 35.8483 36.9891 36.2138 37.6351C36.6454 38.4733 34.5701 44.5491 34.0388 45.911ZM48.7656 53.3137C48.4004 53.5059 48.0683 53.6454 47.9189 53.5409C47.8027 53.471 48.0682 53.2091 48.0682 53.2091C48.0682 53.2091 49.9111 51.1315 50.6416 50.1712C51.0567 49.6127 51.5548 48.9667 52.0861 48.2332V48.4427C52.0862 50.9567 49.795 52.6328 48.7656 53.3137ZM60.1219 50.5901C59.8563 50.3806 59.8897 49.7346 60.7861 47.7093C61.1349 46.9061 61.9317 45.5618 63.3097 44.2872C63.4758 44.811 63.5755 45.3172 63.5588 45.7887C63.5423 48.9314 61.4171 50.1012 60.1219 50.5901Z" fill="#EB67A9"/>
</svg>
