<svg width="186" height="263" viewBox="0 0 186 263" fill="none" xmlns="http://www.w3.org/2000/svg">
<g clip-path="url(#clip0_852_320)">
<path opacity="0.5" d="M73.8769 184.714C75.8909 184.307 77.9535 184.195 79.9998 184.382C80.1893 184.381 80.3705 184.305 80.5045 184.171C80.6385 184.037 80.7144 183.856 80.7158 183.667C80.712 183.478 80.6353 183.299 80.5019 183.165C80.3684 183.032 80.1885 182.955 79.9998 182.952C77.8248 182.763 75.634 182.892 73.4962 183.335C73.3133 183.385 73.1579 183.506 73.0643 183.671C72.9706 183.836 72.9464 184.032 72.9968 184.214C73.0473 184.397 73.1683 184.553 73.3333 184.646C73.4983 184.74 73.6939 184.764 73.8769 184.714H73.8769Z" fill="#CCCCCC"/>
<path d="M24.7238 172.271C20.7864 167.039 18.5107 161.189 18.4361 154.518C18.3092 154.159 18.3303 153.764 18.4946 153.42C18.659 153.076 18.9532 152.811 19.3127 152.684L32.7333 147.94C33.0932 147.813 33.4886 147.834 33.8329 147.998C34.1772 148.162 34.4423 148.456 34.57 148.815L40.8576 166.568C40.9845 166.928 40.9635 167.323 40.7991 167.667C40.6348 168.011 40.3406 168.276 39.981 168.403L26.5604 173.147C26.2006 173.274 25.8051 173.253 25.4608 173.089C25.1165 172.925 24.8514 172.631 24.7238 172.271Z" fill="#F2F2F2"/>
<path opacity="0.2" d="M27.7537 171.955C27.3939 172.082 26.9985 172.061 26.6541 171.897C26.3098 171.732 26.0448 171.439 25.9171 171.079C21.9797 165.847 19.704 159.997 19.6294 153.326C19.5473 153.09 19.5291 152.836 19.5768 152.59L19.3127 152.684C18.9532 152.811 18.659 153.076 18.4946 153.42C18.3303 153.764 18.3092 154.159 18.4361 154.518C18.5107 161.189 20.7864 167.039 24.7238 172.271C24.8514 172.631 25.1165 172.925 25.4608 173.089C25.8051 173.253 26.2006 173.274 26.5604 173.147L39.981 168.403C40.2191 168.318 40.4305 168.172 40.5937 167.979C40.7569 167.786 40.8661 167.553 40.9102 167.305L27.7537 171.955Z" fill="black"/>
<path d="M34.0412 158.667L25.0566 161.871C24.9136 161.922 24.7562 161.914 24.619 161.849C24.4818 161.784 24.3761 161.668 24.3251 161.525C24.274 161.382 24.2819 161.225 24.3469 161.088C24.4119 160.951 24.5287 160.845 24.6717 160.794L33.6563 157.59C33.7992 157.54 33.9563 157.548 34.0931 157.613C34.23 157.678 34.3355 157.794 34.3864 157.937C34.4374 158.08 34.4296 158.237 34.3649 158.373C34.3002 158.51 34.1838 158.616 34.0412 158.667H34.0412Z" fill="white"/>
<path d="M25.978 158.213L24.0013 158.918C23.9306 158.943 23.8555 158.955 23.7804 158.951C23.7052 158.948 23.6315 158.93 23.5634 158.898C23.4953 158.866 23.4341 158.821 23.3834 158.765C23.3328 158.71 23.2936 158.645 23.268 158.574C23.2425 158.503 23.2312 158.428 23.2348 158.353C23.2383 158.278 23.2566 158.204 23.2887 158.136C23.3207 158.068 23.3658 158.007 23.4215 157.957C23.4772 157.906 23.5423 157.867 23.6131 157.842L23.6165 157.841L25.5931 157.136C25.7359 157.085 25.893 157.093 26.0298 157.158C26.1666 157.224 26.272 157.34 26.3229 157.483C26.3739 157.625 26.3661 157.782 26.3015 157.919C26.2368 158.056 26.1205 158.161 25.978 158.213Z" fill="white"/>
<path d="M35.7331 163.402L26.7485 166.606C26.6057 166.657 26.4486 166.649 26.3118 166.584C26.175 166.519 26.0696 166.402 26.0187 166.259C25.9677 166.117 25.9755 165.96 26.0401 165.823C26.1048 165.686 26.2211 165.581 26.3637 165.529L35.3483 162.325C35.491 162.274 35.6483 162.282 35.7855 162.346C35.9228 162.411 36.0287 162.527 36.0802 162.67C36.1316 162.812 36.1243 162.969 36.0599 163.107C35.9955 163.244 35.8791 163.35 35.7365 163.401L35.7331 163.402Z" fill="white"/>
<path d="M34.8871 161.035L25.9025 164.239C25.7595 164.29 25.6021 164.282 25.4649 164.218C25.3276 164.153 25.2217 164.036 25.1705 163.893C25.1193 163.751 25.127 163.593 25.1918 163.456C25.2567 163.319 25.3734 163.213 25.5163 163.162L25.5176 163.162L34.5022 159.958C34.645 159.907 34.8021 159.915 34.939 159.98C35.0759 160.045 35.1813 160.162 35.2323 160.305C35.2832 160.447 35.2755 160.604 35.2108 160.741C35.146 160.878 35.0296 160.984 34.887 161.035H34.8871Z" fill="white"/>
<path d="M25.6657 152.867C26.9838 152.867 28.0523 151.8 28.0523 150.483C28.0523 149.166 26.9838 148.099 25.6657 148.099C24.3476 148.099 23.2791 149.166 23.2791 150.483C23.2791 151.8 24.3476 152.867 25.6657 152.867Z" fill="#CCCCCC"/>
<path d="M113.017 47.5006C113.055 50.9912 114.167 58.2585 113.37 61.6776L113.241 61.3915C112.578 61.9163 111.874 62.3867 111.136 62.7982C110.603 61.504 109.807 60.3347 108.797 59.3649C108.93 60.9694 108.74 62.5843 108.238 64.1144C105.255 65.1873 100.019 61.8064 96.7731 61.7349C91.5512 61.6156 86.4629 60.3186 81.4748 58.9452C79.7039 58.4588 77.7564 57.8246 76.9545 56.3559C76.1526 54.8872 77.5878 53.3018 77.4939 51.6445C76.825 39.8396 82.4534 37.8609 87.8089 34.7065C88.9875 34.0124 89.5655 32.5177 90.8972 31.936C92.7445 31.1301 94.945 31.5163 96.9545 31.9217C96.4554 31.7574 96.0071 31.4676 95.6526 31.0801C95.2981 30.6925 95.0495 30.2204 94.9306 29.7091C94.8468 29.2079 94.9032 28.6933 95.0936 28.2221C95.2839 27.7509 95.6008 27.3413 96.0094 27.0387C97.1168 26.1851 98.7684 26.0802 100.181 26.4426C101.546 26.869 102.837 27.5027 104.009 28.3214C104.805 28.7575 105.517 29.3324 106.11 30.019C106.389 30.3439 106.563 30.7463 106.607 31.1724C106.651 31.5985 106.564 32.0279 106.358 32.4033C106.103 32.7251 105.779 32.9853 105.409 33.1645C105.04 33.3436 104.635 33.4372 104.224 33.4381C103.591 33.4565 102.959 33.3907 102.344 33.2426C105.165 33.9378 107.707 35.4747 109.632 37.6487C112.024 40.4288 112.974 44.01 113.017 47.5006Z" fill="#2F2E41"/>
<path d="M29.58 81.1404C30.0654 82.1696 30.9336 82.9689 31.9999 83.3683C33.0661 83.7677 34.2464 83.7357 35.2894 83.2791C35.4999 83.183 35.7022 83.0695 35.894 82.9401L48.1847 91.9613L54.961 87.3414L36.7869 76.802C36.1878 76.049 35.3561 75.5152 34.4216 75.284C33.487 75.0529 32.5021 75.1373 31.6205 75.5241C31.1211 75.749 30.6708 76.07 30.2955 76.4688C29.9202 76.8676 29.6272 77.3363 29.4332 77.8482C29.2392 78.3601 29.1481 78.9051 29.1649 79.4522C29.1818 79.9993 29.3064 80.5377 29.5315 81.0367C29.5472 81.0715 29.5634 81.106 29.58 81.1404Z" fill="#FFB6B6"/>
<path d="M156.258 72.9534C155.128 73.0941 154.097 73.6697 153.385 74.5578C152.674 75.446 152.337 76.5765 152.447 77.7088C152.473 77.9386 152.518 78.1659 152.581 78.3883L140.176 87.2513L142.463 95.1223L158.143 81.1455C159.046 80.811 159.812 80.1874 160.323 79.3719C160.833 78.5565 161.059 77.5951 160.966 76.6378C160.907 76.0936 160.742 75.5663 160.479 75.0859C160.217 74.6055 159.862 74.1815 159.435 73.8381C159.009 73.4947 158.518 73.2386 157.993 73.0844C157.467 72.9302 156.916 72.881 156.371 72.9396C156.333 72.9437 156.295 72.9483 156.258 72.9534Z" fill="#FFB6B6"/>
<path d="M66.2993 254.595L62.304 254.562L60.536 238.809L66.432 238.859L66.2993 254.595Z" fill="#FFB6B6"/>
<path d="M53.503 260.942C53.4994 261.415 53.6839 261.87 54.0158 262.208C54.3478 262.545 54.8002 262.737 55.2738 262.742L63.2165 262.808L64.607 259.992L65.1177 262.822L68.1147 262.849L67.3579 252.755L66.3152 252.686L62.0623 252.393L60.6902 252.302L60.6661 255.157L54.2857 259.481C54.0466 259.643 53.8506 259.861 53.7142 260.115C53.5779 260.369 53.5054 260.653 53.503 260.942Z" fill="#2F2E41"/>
<path d="M118.96 236.915L115.698 239.219L105.05 227.467L109.864 224.066L118.96 236.915Z" fill="#FFB6B6"/>
<path d="M112.287 249.534C112.561 249.92 112.977 250.182 113.443 250.262C113.91 250.342 114.39 250.234 114.777 249.961L121.261 245.379L120.743 242.282L122.813 244.281L125.261 242.554L118.743 234.803L117.856 235.356L114.234 237.601L113.066 238.327L114.717 240.659L112.068 247.892C111.968 248.163 111.937 248.454 111.975 248.74C112.013 249.026 112.12 249.299 112.287 249.534Z" fill="#2F2E41"/>
<path d="M69.2954 126.88L80.8997 99.9585H107.628L99.9188 128.054L69.2954 126.88Z" fill="#FFB6B6"/>
<path d="M44.7598 254.716C44.5379 254.726 44.3183 254.668 44.1306 254.55C43.943 254.431 43.7964 254.257 43.7107 254.053C43.625 253.848 43.6044 253.622 43.6516 253.405C43.6989 253.188 43.8117 252.991 43.9748 252.841L44.049 252.546C44.0392 252.522 44.0294 252.499 44.0195 252.475C43.796 251.948 43.4214 251.498 42.9429 251.182C42.4644 250.867 41.9033 250.7 41.33 250.702C40.7566 250.704 40.1967 250.875 39.7206 251.194C39.2444 251.513 38.8733 251.966 38.6537 252.495C37.7761 254.607 36.6587 256.722 36.3836 258.955C36.2624 259.941 36.3135 260.942 36.5347 261.911C34.4734 257.419 33.4031 252.537 33.3962 247.596C33.3958 246.356 33.4647 245.116 33.6027 243.884C33.7168 242.874 33.8751 241.871 34.0775 240.875C35.1824 235.472 37.5544 230.407 40.9988 226.097C42.666 225.189 44.0142 223.791 44.8618 222.093C45.1689 221.483 45.386 220.832 45.5062 220.159C45.3181 220.184 44.7971 217.323 44.9389 217.147C44.6769 216.75 44.2078 216.552 43.9216 216.165C42.498 214.236 40.5367 214.573 39.5129 217.193C37.3256 218.296 37.3045 220.125 38.6465 221.884C39.5004 223.003 39.6177 224.517 40.3668 225.715C40.2898 225.814 40.2096 225.91 40.1325 226.008C38.7236 227.818 37.4956 229.762 36.4662 231.811C36.7165 229.515 36.4177 227.193 35.5944 225.035C34.7599 223.024 33.1959 221.33 31.8185 219.591C31.4542 219.124 30.9595 218.776 30.3969 218.59C29.8343 218.403 29.2291 218.388 28.6577 218.545C28.0864 218.703 27.5746 219.026 27.1869 219.474C26.7993 219.922 26.5534 220.474 26.4801 221.062C26.4773 221.087 26.4745 221.113 26.4718 221.139C26.6764 221.254 26.8767 221.376 27.0726 221.506C27.3188 221.67 27.5095 221.905 27.6198 222.179C27.7301 222.454 27.7549 222.755 27.6909 223.044C27.6268 223.333 27.477 223.595 27.261 223.797C27.0449 224 26.7728 224.132 26.4802 224.177L26.4503 224.182C26.5231 224.918 26.652 225.648 26.8356 226.365C25.0687 233.192 28.8834 235.678 34.3304 235.79C34.4506 235.852 34.5678 235.913 34.688 235.972C33.6537 238.9 33.005 241.95 32.758 245.045C32.6182 246.871 32.6265 248.706 32.7827 250.531L32.7735 250.466C32.3788 248.437 31.2953 246.606 29.7059 245.282C27.3452 243.345 24.01 242.632 21.4633 241.075C21.1926 240.901 20.8779 240.808 20.5563 240.807C20.2346 240.807 19.9194 240.898 19.6479 241.07C19.3764 241.242 19.1599 241.489 19.0239 241.78C18.8879 242.071 18.8381 242.395 18.8803 242.714L18.8908 242.782C19.2704 242.936 19.64 243.114 19.9975 243.314C20.2021 243.43 20.4024 243.552 20.5983 243.681C20.8445 243.846 21.0352 244.081 21.1455 244.355C21.2558 244.629 21.2806 244.931 21.2166 245.22C21.1525 245.508 21.0027 245.771 20.7866 245.973C20.5706 246.175 20.2985 246.308 20.0059 246.353L19.9759 246.357C19.9544 246.36 19.9358 246.364 19.9143 246.367C20.563 247.914 21.4734 249.338 22.6057 250.577C23.7106 256.536 28.4558 257.102 33.5318 255.366H33.5349C34.0919 257.784 34.8988 260.137 35.9427 262.389H44.5442C44.5751 262.293 44.6028 262.195 44.6306 262.099C43.8344 262.149 43.0351 262.101 42.2505 261.957C42.8887 261.175 43.5269 260.387 44.1651 259.604C44.1793 259.59 44.1927 259.574 44.2052 259.558C44.5289 259.158 44.8557 258.76 45.1794 258.36L45.1796 258.36C45.1968 257.132 45.0558 255.908 44.7601 254.716L44.7598 254.716Z" fill="#F2F2F2"/>
<path d="M137.836 254.716C138.058 254.726 138.278 254.668 138.466 254.55C138.653 254.431 138.8 254.257 138.886 254.053C138.971 253.848 138.992 253.622 138.945 253.405C138.897 253.188 138.785 252.991 138.622 252.841L138.547 252.546C138.557 252.522 138.567 252.499 138.577 252.475C138.8 251.948 139.175 251.498 139.653 251.182C140.132 250.867 140.693 250.7 141.266 250.702C141.84 250.704 142.4 250.875 142.876 251.194C143.352 251.513 143.723 251.966 143.943 252.495C144.82 254.607 145.938 256.722 146.213 258.954C146.334 259.941 146.283 260.942 146.062 261.911C148.123 257.419 149.193 252.537 149.2 247.596C149.201 246.356 149.132 245.116 148.994 243.884C148.879 242.874 148.721 241.871 148.519 240.875C147.414 235.472 145.042 230.407 141.597 226.097C139.93 225.189 138.582 223.791 137.734 222.093C137.427 221.483 137.21 220.832 137.09 220.159C137.278 220.184 137.799 217.323 137.657 217.147C137.919 216.75 138.389 216.552 138.675 216.165C140.098 214.236 142.06 214.573 143.083 217.193C145.271 218.296 145.292 220.125 143.95 221.884C143.096 223.003 142.979 224.517 142.229 225.715C142.307 225.814 142.387 225.91 142.464 226.008C143.873 227.818 145.101 229.762 146.13 231.811C145.88 229.515 146.179 227.193 147.002 225.035C147.836 223.024 149.4 221.33 150.778 219.591C151.142 219.124 151.637 218.776 152.199 218.59C152.762 218.403 153.367 218.388 153.939 218.545C154.51 218.703 155.022 219.026 155.409 219.474C155.797 219.922 156.043 220.474 156.116 221.062C156.119 221.087 156.122 221.113 156.124 221.139C155.92 221.254 155.72 221.376 155.524 221.506C155.278 221.67 155.087 221.905 154.976 222.179C154.866 222.454 154.841 222.755 154.905 223.044C154.969 223.333 155.119 223.595 155.335 223.797C155.551 224 155.823 224.132 156.116 224.177L156.146 224.182C156.073 224.918 155.944 225.648 155.761 226.365C157.528 233.192 153.713 235.678 148.266 235.79C148.146 235.852 148.029 235.913 147.908 235.972C148.943 238.9 149.591 241.95 149.838 245.045C149.978 246.871 149.97 248.706 149.814 250.531L149.823 250.466C150.217 248.437 151.301 246.606 152.89 245.282C155.251 243.345 158.586 242.632 161.133 241.075C161.404 240.901 161.718 240.808 162.04 240.807C162.362 240.807 162.677 240.898 162.948 241.07C163.22 241.242 163.436 241.489 163.572 241.78C163.708 242.071 163.758 242.395 163.716 242.714L163.706 242.782C163.326 242.936 162.956 243.114 162.599 243.314C162.394 243.43 162.194 243.552 161.998 243.681C161.752 243.846 161.561 244.081 161.451 244.355C161.34 244.629 161.316 244.931 161.38 245.219C161.444 245.508 161.594 245.771 161.81 245.973C162.026 246.175 162.298 246.308 162.59 246.353L162.62 246.357C162.642 246.36 162.66 246.364 162.682 246.367C162.033 247.914 161.123 249.338 159.991 250.577C158.886 256.536 154.14 257.102 149.064 255.366H149.061C148.504 257.784 147.697 260.137 146.653 262.389H138.052C138.021 262.293 137.993 262.194 137.966 262.099C138.762 262.149 139.561 262.101 140.346 261.957C139.708 261.175 139.069 260.387 138.431 259.604C138.417 259.59 138.404 259.574 138.391 259.558C138.067 259.158 137.741 258.76 137.417 258.36L137.417 258.359C137.399 257.132 137.54 255.908 137.836 254.716L137.836 254.716Z" fill="#F2F2F2"/>
<path d="M69.2956 124.858L57.7744 148.869L58.5967 244.554H68.4647C68.4647 244.554 70.3835 241.968 70.3835 240.157C70.3835 238.346 67.1199 238.083 69.2956 235.86C71.4714 233.636 72.1967 232.912 72.1967 230.738V195.964L79.9774 162.254L79.1551 199.293L107.114 232.63L113.628 226.123C113.628 226.123 115.532 225.284 113.628 223.483C111.723 221.681 110.535 224.863 110.404 219.831C110.272 214.798 111.36 215.885 110.272 214.798C109.185 213.711 93.957 195.551 93.957 195.551C93.957 195.551 107.734 136.91 100.844 125.68L69.2956 124.858Z" fill="#2F2E41"/>
<path d="M101.569 127.491C101.569 127.491 71.834 116.985 74.0098 111.189C76.1856 105.393 79.8403 106.508 75.4746 104.683C71.1088 102.857 68.2163 102.495 70.9318 99.9587C73.6472 97.4229 77.636 94.887 77.636 92.3511C77.636 89.8152 80.8997 69.8904 80.8997 69.8904H86.1243L91.4158 60.8336H98.8911L102.657 69.1658H110.609L110.998 81.8453C110.998 81.8453 111.512 106.34 109.079 107.315C106.646 108.291 104.47 108.291 106.646 110.465C108.822 112.638 110.061 113.762 109.079 115.736C108.097 117.71 101.569 127.491 101.569 127.491Z" fill="#E6E6E6"/>
<path d="M105.921 72.7885L110.609 69.1658C110.609 69.1658 118.613 69.1658 119.701 73.513C120.789 77.8603 127.336 88.4913 127.336 88.4913C127.336 88.4913 133.843 84.7434 136.381 84.7434C138.92 84.7434 140.733 86.5547 140.733 84.3811C140.733 82.2075 139.282 81.8452 141.458 81.8452C143.634 81.8452 149.436 79.6716 149.436 79.6716L155.625 85.8544C155.625 85.8544 154.875 91.6265 152.337 91.2642C149.799 90.902 148.348 89.0906 148.348 91.2642C148.348 93.4378 149.799 96.6983 146.535 97.0605C143.271 97.4228 121.514 102.857 121.514 102.857L106.646 81.1207L105.921 72.7885Z" fill="#E6E6E6"/>
<path d="M87.0644 72.7885L82.3759 69.1658C82.3759 69.1658 74.3725 69.1658 73.2846 73.513C72.1967 77.8603 65.2838 88.4913 65.2838 88.4913C65.2838 88.4913 59.1422 84.7434 56.6038 84.7434C54.0654 84.7434 52.2523 86.5547 52.2523 84.3811C52.2523 82.2075 53.7028 81.8452 51.527 81.8452C49.3513 81.8452 43.5493 79.6716 43.5493 79.6716L37.3604 85.8544C37.3604 85.8544 38.1099 91.6265 40.6483 91.2642C43.1866 90.9019 44.6372 89.0906 44.6372 91.2642C44.6372 93.4378 43.1866 96.6983 46.4503 97.0605C49.7139 97.4228 71.4714 102.857 71.4714 102.857L86.3391 81.1207L87.0644 72.7885Z" fill="#E6E6E6"/>
<path d="M94.2843 58.8661C100.676 58.8661 105.857 53.6901 105.857 47.3051C105.857 40.9202 100.676 35.7441 94.2843 35.7441C87.893 35.7441 82.7119 40.9202 82.7119 47.3051C82.7119 53.6901 87.893 58.8661 94.2843 58.8661Z" fill="#FFB6B6"/>
<path d="M106.912 45.5598C105.551 47.205 103.527 47.1191 101.728 46.8569C101.16 46.7758 100.592 46.6852 100.024 46.5803C99.9235 46.2608 99.8089 45.9413 99.6801 45.6313C99.1475 44.3371 98.3509 43.1678 97.3412 42.1979C97.4475 43.4659 97.3492 44.7427 97.05 45.9794C95.9951 45.7362 94.945 45.4644 93.8996 45.164C92.9747 45.0138 92.1429 44.5143 91.5762 43.7688C91.0094 43.0233 90.751 42.0888 90.8543 41.1584C89.3507 42.3029 87.7135 43.2947 85.9951 43.3138C85.0265 43.2887 84.0914 42.9543 83.3269 42.3596C82.5624 41.7649 82.0087 40.9412 81.7469 40.0092C81.2791 38.5786 81.3507 36.9287 81.5416 35.3836C81.7708 33.5477 82.2863 31.5306 83.5273 30.7915C84.5249 30.1907 85.6753 30.6198 86.7015 31.1062C88.9625 32.1902 91.1058 33.5037 93.0977 35.026L93.1216 35.5267C93.6371 33.0613 95.3412 31.1587 97.198 30.9679C98.4486 30.844 99.6705 31.421 100.849 32.0027C102.39 32.6819 103.823 33.5832 105.102 34.6779C106.548 35.991 107.551 37.7181 107.976 39.6229C108.42 41.6877 108.086 44.1388 106.912 45.5598Z" fill="#2F2E41"/>
<path d="M95.4561 29.5154C95.5747 29.5254 95.2833 29.4586 95.3779 29.4983C95.3315 29.4771 95.2868 29.4521 95.2444 29.4237C95.2372 29.4191 95.1431 29.3431 95.2046 29.396C95.0631 29.2859 94.9565 29.1372 94.8976 28.9679C94.7661 28.5565 94.7049 28.1259 94.7167 27.6942C94.7402 27.1267 94.6433 26.5608 94.4324 26.0334C94.3699 25.8906 94.2746 25.7645 94.1541 25.6654C94.0337 25.5664 93.8916 25.497 93.7393 25.4631C93.587 25.4292 93.4289 25.4316 93.2777 25.4702C93.1265 25.5088 92.9866 25.5824 92.8692 25.6852C92.4786 26.0678 92.4477 26.7142 92.4201 27.2283C92.3903 27.7621 92.4469 28.2972 92.5877 28.813C92.8299 29.661 93.3138 30.4203 93.9804 30.9984C94.7503 31.672 95.7171 32.0798 96.7373 32.1611C96.8774 32.158 97.0137 32.1142 97.1294 32.0351C97.2451 31.9559 97.3353 31.8449 97.3889 31.7155C97.4426 31.5861 97.4574 31.4439 97.4316 31.3062C97.4058 31.1685 97.3404 31.0413 97.2435 30.94L95.9623 29.7249C95.8281 29.5908 95.6459 29.5154 95.456 29.5154C95.2661 29.5154 95.084 29.5908 94.9498 29.7249C94.8155 29.8591 94.7401 30.041 94.7401 30.2307C94.74 30.4204 94.8155 30.6023 94.9498 30.7365L96.231 31.9516L96.7373 30.7305C96.5258 30.7115 96.3172 30.6689 96.1152 30.6036C95.8962 30.5428 95.687 30.4512 95.4938 30.3315C95.3045 30.2279 95.127 30.104 94.9646 29.962C94.8607 29.8707 94.7615 29.7742 94.6673 29.6729C94.6332 29.6361 94.5997 29.5987 94.5669 29.5606C94.5692 29.5634 94.432 29.3913 94.491 29.47C94.3429 29.2676 94.214 29.0519 94.106 28.8256C94.0679 28.7455 94.0365 28.6624 94.012 28.5771C93.9667 28.4368 93.9296 28.294 93.9009 28.1495C93.8464 27.8456 93.8299 27.5362 93.852 27.2284C93.8582 27.0978 93.8712 26.9677 93.891 26.8384C93.909 26.7703 93.9224 26.701 93.931 26.6311C93.9335 26.4574 93.9073 26.7238 93.8166 26.7643L93.4553 26.8619C93.3964 26.8571 93.3394 26.8392 93.2884 26.8094C93.2374 26.7796 93.1939 26.7387 93.1609 26.6897C93.1458 26.63 93.15 26.6406 93.1736 26.7215C93.2007 26.8165 93.2218 26.913 93.2366 27.0106C93.2642 27.2375 93.2802 27.4657 93.2846 27.6942C93.2892 28.1783 93.3455 28.6605 93.4525 29.1327C93.5529 29.6072 93.8005 30.038 94.1603 30.3636C94.52 30.6892 94.9735 30.893 95.456 30.946C95.6454 30.9445 95.8267 30.8687 95.9606 30.7348C96.0946 30.601 96.1705 30.42 96.172 30.2307C96.1683 30.0422 96.0916 29.8624 95.9582 29.7291C95.8247 29.5958 95.6448 29.5192 95.4561 29.5154Z" fill="#2F2E41"/>
<path d="M154.557 75.9461C150.619 70.7141 148.344 64.8634 148.269 58.1931C148.142 57.8337 148.163 57.4386 148.328 57.0946C148.492 56.7506 148.786 56.4858 149.146 56.3583L162.566 51.6144C162.926 51.4876 163.322 51.5087 163.666 51.6728C164.01 51.837 164.275 52.1309 164.403 52.4901L170.691 70.2431C170.817 70.6026 170.796 70.9976 170.632 71.3416C170.468 71.6856 170.173 71.9504 169.814 72.0779L156.393 76.8219C156.033 76.9486 155.638 76.9276 155.294 76.7634C154.949 76.5992 154.684 76.3053 154.557 75.9461Z" fill="#1A89E7"/>
<path opacity="0.2" d="M157.587 75.6297C157.227 75.7564 156.831 75.7354 156.487 75.5712C156.143 75.407 155.878 75.1131 155.75 74.7539C151.813 69.5219 149.537 63.6712 149.462 57.0009C149.38 56.7645 149.362 56.5106 149.41 56.2649L149.146 56.3582C148.786 56.4858 148.492 56.7506 148.328 57.0945C148.163 57.4385 148.142 57.8336 148.269 58.193C148.344 64.8633 150.619 70.714 154.557 75.9461C154.684 76.3052 154.949 76.5992 155.294 76.7633C155.638 76.9275 156.033 76.9485 156.393 76.8218L169.814 72.0779C170.052 71.9928 170.263 71.8464 170.427 71.6534C170.59 71.4605 170.699 71.2278 170.743 70.9791L157.587 75.6297Z" fill="black"/>
<path d="M163.874 62.342L154.889 65.5459C154.746 65.5968 154.589 65.589 154.452 65.5241C154.315 65.4591 154.209 65.3424 154.158 65.1996C154.107 65.0567 154.115 64.8995 154.18 64.7624C154.245 64.6254 154.362 64.5198 154.505 64.4688L163.489 61.2649C163.56 61.2396 163.635 61.2285 163.71 61.2323C163.785 61.236 163.859 61.2545 163.927 61.2867C163.995 61.3188 164.056 61.364 164.106 61.4197C164.156 61.4754 164.195 61.5404 164.221 61.6112C164.246 61.6819 164.257 61.7569 164.253 61.8319C164.25 61.9069 164.231 61.9804 164.199 62.0483C164.167 62.1161 164.121 62.177 164.066 62.2274C164.01 62.2778 163.945 62.3167 163.874 62.342Z" fill="white"/>
<path d="M155.811 61.8875L153.834 62.5924C153.763 62.6177 153.688 62.6289 153.613 62.6252C153.538 62.6216 153.465 62.6032 153.397 62.5711C153.329 62.539 153.268 62.4939 153.217 62.4383C153.167 62.3826 153.128 62.3176 153.102 62.2469C153.077 62.1762 153.066 62.1013 153.069 62.0262C153.073 61.9512 153.091 61.8777 153.124 61.8098C153.156 61.7419 153.201 61.681 153.257 61.6305C153.312 61.5801 153.377 61.5411 153.448 61.5157L153.449 61.5153L155.426 60.8104C155.569 60.7596 155.726 60.7676 155.863 60.8326C156 60.8975 156.106 61.0142 156.157 61.1569C156.208 61.2997 156.2 61.4568 156.135 61.5938C156.07 61.7308 155.954 61.8364 155.811 61.8875Z" fill="white"/>
<path d="M165.566 67.0771L156.581 70.281C156.438 70.3322 156.281 70.3245 156.144 70.2597C156.007 70.1949 155.901 70.0783 155.849 69.9356C155.798 69.7928 155.806 69.6355 155.871 69.4984C155.936 69.3613 156.052 69.2555 156.195 69.2044L156.197 69.2039L165.181 66C165.324 65.9492 165.481 65.9572 165.618 66.0221C165.755 66.0871 165.861 66.2038 165.912 66.3465C165.963 66.4892 165.955 66.6464 165.89 66.7833C165.825 66.9203 165.709 67.026 165.566 67.0771Z" fill="white"/>
<path d="M164.72 64.7095L155.735 67.9134C155.665 67.9387 155.59 67.9499 155.515 67.9462C155.439 67.9426 155.366 67.9242 155.298 67.8921C155.23 67.86 155.169 67.8149 155.118 67.7593C155.068 67.7037 155.029 67.6387 155.004 67.568C154.978 67.4973 154.967 67.4223 154.971 67.3473C154.974 67.2723 154.993 67.1987 155.025 67.1308C155.057 67.0629 155.102 67.002 155.158 66.9515C155.213 66.9011 155.279 66.8621 155.349 66.8368L155.351 66.8363L164.335 63.6324C164.406 63.6071 164.481 63.5959 164.556 63.5996C164.631 63.6032 164.705 63.6216 164.773 63.6537C164.841 63.6858 164.902 63.7309 164.952 63.7865C165.003 63.8421 165.042 63.9071 165.067 63.9778C165.092 64.0485 165.104 64.1235 165.1 64.1985C165.096 64.2735 165.078 64.3471 165.046 64.415C165.014 64.4829 164.969 64.5438 164.913 64.5942C164.857 64.6447 164.792 64.6837 164.721 64.709L164.72 64.7095Z" fill="white"/>
<path d="M155.499 56.5419C156.817 56.5419 157.885 55.4744 157.885 54.1576C157.885 52.8408 156.817 51.7733 155.499 51.7733C154.18 51.7733 153.112 52.8408 153.112 54.1576C153.112 55.4744 154.18 56.5419 155.499 56.5419Z" fill="#3F3D56"/>
<path d="M37.6475 15.1733C40.0512 9.08397 43.8519 4.08573 49.5033 0.532883C49.7436 0.236831 50.0917 0.0480994 50.4711 0.00808152C50.8505 -0.0319363 51.2303 0.0800321 51.5272 0.319426L62.5948 9.26444C62.8912 9.5045 63.0801 9.85219 63.1202 10.2312C63.1602 10.6103 63.0481 10.9897 62.8085 11.2863L50.9527 25.9267C50.7124 26.2228 50.3643 26.4115 49.9849 26.4515C49.6055 26.4916 49.2257 26.3796 48.9288 26.1402L37.8612 17.1952C37.5648 16.9551 37.3759 16.6074 37.3358 16.2284C37.2958 15.8493 37.4079 15.4699 37.6475 15.1733Z" fill="#1A89E7"/>
<path opacity="0.2" d="M39.5024 17.5874C39.2061 17.3474 39.0172 16.9997 38.9771 16.6206C38.9371 16.2416 39.0492 15.8622 39.2888 15.5656C41.6925 9.4762 45.4932 4.47798 51.1446 0.925133C51.3034 0.731544 51.5105 0.583283 51.745 0.495345L51.5272 0.31931C51.2303 0.0799196 50.8505 -0.0320563 50.4711 0.00795778C50.0917 0.0479718 49.7437 0.236709 49.5034 0.532752C43.852 4.08561 40.0512 9.08382 37.6475 15.1732C37.4079 15.4698 37.2958 15.8492 37.3358 16.2283C37.3759 16.6073 37.5648 16.955 37.8612 17.1951L48.9288 26.1401C49.1259 26.2983 49.3614 26.4016 49.6114 26.4396C49.8614 26.4776 50.117 26.4489 50.3523 26.3564L39.5024 17.5874Z" fill="black"/>
<path d="M54.1273 15.9897L46.6941 10.016C46.5762 9.92081 46.501 9.7828 46.4848 9.63225C46.4687 9.4817 46.513 9.3309 46.608 9.21292C46.703 9.09494 46.8409 9.01942 46.9916 9.00292C47.1422 8.98642 47.2933 9.03029 47.4116 9.1249L54.8449 15.0986C54.9627 15.1938 55.038 15.3318 55.0541 15.4823C55.0702 15.6329 55.0259 15.7836 54.931 15.9016C54.836 16.0196 54.698 16.0951 54.5474 16.1116C54.3967 16.1281 54.2457 16.0843 54.1274 15.9897L54.1273 15.9897Z" fill="white"/>
<path d="M50.2968 8.88675L48.6615 7.57253C48.5438 7.47727 48.4687 7.3393 48.4527 7.18884C48.4366 7.03838 48.4809 6.88771 48.5759 6.76981C48.6708 6.65191 48.8086 6.5764 48.9592 6.55984C49.1097 6.54327 49.2607 6.58699 49.3791 6.68142L51.0144 7.99564C51.1321 8.09087 51.2073 8.22885 51.2234 8.37934C51.2395 8.52983 51.1952 8.68056 51.1002 8.79849C51.0053 8.91642 50.8674 8.99193 50.7168 9.00847C50.5662 9.02502 50.4152 8.98125 50.2968 8.88675L50.2968 8.88675Z" fill="white"/>
<path d="M50.9728 19.9073L43.5396 13.9336C43.4217 13.8384 43.3464 13.7004 43.3303 13.5499C43.3141 13.3993 43.3584 13.2485 43.4534 13.1305C43.5484 13.0125 43.6864 12.937 43.8371 12.9205C43.9877 12.904 44.1388 12.9479 44.2571 13.0425L51.6904 19.0162C51.808 19.1114 51.8831 19.2494 51.8992 19.3999C51.9153 19.5503 51.871 19.701 51.776 19.8189C51.6811 19.9368 51.5433 20.0123 51.3927 20.0289C51.2422 20.0454 51.0912 20.0017 50.9728 19.9073H50.9728Z" fill="white"/>
<path d="M52.5501 17.9485L45.1168 11.9748C45.0581 11.9279 45.0092 11.8699 44.973 11.8041C44.9367 11.7383 44.9138 11.666 44.9055 11.5914C44.8887 11.4407 44.9326 11.2895 45.0274 11.171C45.1222 11.0526 45.2603 10.9767 45.4112 10.9599C45.562 10.9432 45.7134 10.987 45.8319 11.0817L45.8344 11.0837L53.2676 17.0574C53.3862 17.1521 53.4622 17.29 53.4789 17.4407C53.4957 17.5915 53.4518 17.7427 53.357 17.8611C53.2622 17.9795 53.1241 18.0555 52.9732 18.0722C52.8224 18.089 52.671 18.0451 52.5525 17.9504L52.5501 17.9485V17.9485Z" fill="white"/>
<path d="M56.7279 6.96157C58.046 6.96157 59.1146 5.89409 59.1146 4.57728C59.1146 3.26048 58.046 2.19299 56.7279 2.19299C55.4098 2.19299 54.3413 3.26048 54.3413 4.57728C54.3413 5.89409 55.4098 6.96157 56.7279 6.96157Z" fill="#3F3D56"/>
<path d="M10.2712 86.4547C4.44729 78.7159 1.08116 70.0618 0.97085 60.1955C0.783215 59.6638 0.814353 59.0795 1.05744 58.5707C1.30052 58.0619 1.7357 57.6702 2.26749 57.4816L22.1185 50.4646C22.6507 50.2772 23.2356 50.3083 23.7449 50.5511C24.2542 50.794 24.6463 51.2287 24.8351 51.76L34.1355 78.0192C34.3231 78.5509 34.292 79.1352 34.0489 79.644C33.8058 80.1528 33.3706 80.5445 32.8388 80.7331L12.9878 87.7501C12.4556 87.9375 11.8707 87.9064 11.3614 87.6636C10.8521 87.4207 10.46 86.986 10.2712 86.4547Z" fill="#1A89E7"/>
<path opacity="0.2" d="M14.7529 85.9867C14.2207 86.1742 13.6358 86.1431 13.1265 85.9002C12.6172 85.6574 12.2252 85.2226 12.0363 84.6914C6.21241 76.9525 2.8463 68.2985 2.73594 58.4322C2.61449 58.0825 2.58763 57.7069 2.65813 57.3435L2.26749 57.4816C1.7357 57.6702 1.30053 58.0619 1.05745 58.5707C0.814361 59.0795 0.783214 59.6638 0.970833 60.1955C1.08115 70.0618 4.44724 78.7158 10.2712 86.4547C10.46 86.986 10.8521 87.4207 11.3614 87.6636C11.8707 87.9064 12.4556 87.9375 12.9878 87.7501L32.8389 80.7332C33.191 80.6073 33.5036 80.3907 33.745 80.1053C33.9864 79.8199 34.1479 79.4758 34.2133 79.1079L14.7529 85.9867Z" fill="black"/>
<path d="M24.053 66.3322L10.7635 71.0712C10.6587 71.109 10.5475 71.1257 10.4362 71.1204C10.325 71.1151 10.2158 71.0879 10.1151 71.0404C10.0144 70.9929 9.924 70.926 9.84919 70.8435C9.77439 70.7611 9.7166 70.6647 9.67915 70.5598C9.64171 70.455 9.62533 70.3439 9.63097 70.2327C9.6366 70.1216 9.66413 70.0126 9.71199 69.9122C9.75984 69.8117 9.82707 69.7216 9.90983 69.6471C9.99259 69.5726 10.0893 69.5152 10.1943 69.4781L23.4838 64.7391C23.5885 64.7017 23.6995 64.6853 23.8106 64.6909C23.9216 64.6964 24.0305 64.7237 24.1309 64.7713C24.2314 64.8189 24.3215 64.8857 24.3961 64.9681C24.4707 65.0505 24.5284 65.1467 24.5658 65.2513C24.6031 65.3559 24.6195 65.4669 24.614 65.5778C24.6084 65.6887 24.5811 65.7975 24.5335 65.8979C24.4858 65.9982 24.4189 66.0883 24.3365 66.1628C24.254 66.2373 24.1577 66.2949 24.053 66.3322Z" fill="white"/>
<path d="M12.1263 65.6601L9.20266 66.7027C8.99137 66.7774 8.75907 66.7653 8.55669 66.6691C8.35431 66.5729 8.19835 66.4005 8.123 66.1896C8.04766 65.9788 8.05909 65.7467 8.15476 65.5442C8.25044 65.3417 8.42257 65.1854 8.63341 65.1095L11.5571 64.0669C11.7684 63.9923 12.0007 64.0044 12.2031 64.1006C12.4054 64.1968 12.5614 64.3692 12.6367 64.58C12.7121 64.7909 12.7007 65.023 12.605 65.2255C12.5093 65.4279 12.3372 65.5842 12.1263 65.6601Z" fill="white"/>
<path d="M26.5555 73.3363L13.266 78.0753C13.0546 78.1507 12.8218 78.1391 12.6189 78.043C12.4159 77.947 12.2595 77.7743 12.184 77.563C12.1086 77.3518 12.1202 77.1192 12.2163 76.9165C12.3125 76.7138 12.4853 76.5575 12.6968 76.4821L25.9863 71.7431C26.091 71.7057 26.202 71.6894 26.3131 71.6949C26.4241 71.7004 26.533 71.7278 26.6335 71.7753C26.7339 71.8229 26.8241 71.8898 26.8987 71.9721C26.9733 72.0545 27.0309 72.1507 27.0683 72.2553C27.1057 72.3599 27.122 72.4709 27.1165 72.5818C27.111 72.6928 27.0836 72.8015 27.036 72.9019C26.9884 73.0023 26.9214 73.0923 26.839 73.1668C26.7566 73.2413 26.6602 73.2989 26.5555 73.3363Z" fill="white"/>
<path d="M25.3043 69.8343L12.0148 74.5733C11.9101 74.6107 11.7991 74.627 11.688 74.6215C11.577 74.616 11.4681 74.5886 11.3676 74.5411C11.2672 74.4935 11.177 74.4266 11.1024 74.3443C11.0278 74.2619 10.9702 74.1657 10.9328 74.0611C10.8954 73.9565 10.8791 73.8455 10.8846 73.7346C10.8901 73.6237 10.9175 73.5149 10.9651 73.4145C11.0127 73.3141 11.0797 73.2241 11.1621 73.1496C11.2445 73.0751 11.3409 73.0175 11.4456 72.9801L24.7351 68.2411C24.8398 68.2038 24.9508 68.1874 25.0619 68.1929C25.1729 68.1985 25.2818 68.2258 25.3822 68.2734C25.4827 68.3209 25.5728 68.3878 25.6474 68.4702C25.722 68.5525 25.7797 68.6488 25.8171 68.7534C25.8544 68.858 25.8708 68.9689 25.8653 69.0799C25.8597 69.1908 25.8324 69.2996 25.7848 69.3999C25.7371 69.5003 25.6702 69.5903 25.5878 69.6649C25.5053 69.7394 25.409 69.797 25.3043 69.8343Z" fill="white"/>
<path d="M11.6644 57.7532C13.6141 57.7532 15.1946 56.1743 15.1946 54.2265C15.1946 52.2788 13.6141 50.6998 11.6644 50.6998C9.71479 50.6998 8.13428 52.2788 8.13428 54.2265C8.13428 56.1743 9.71479 57.7532 11.6644 57.7532Z" fill="#3F3D56"/>
<path d="M141.269 214.007C134.716 213.974 128.677 212.245 123.315 208.269C122.952 208.152 122.65 207.896 122.475 207.557C122.3 207.219 122.267 206.824 122.383 206.461L126.721 192.916C126.838 192.553 127.094 192.251 127.433 192.076C127.772 191.902 128.167 191.869 128.53 191.984L146.484 197.723C146.847 197.84 147.149 198.095 147.324 198.434C147.499 198.773 147.532 199.167 147.416 199.53L143.078 213.076C142.961 213.439 142.705 213.741 142.366 213.915C142.027 214.09 141.632 214.123 141.269 214.007Z" fill="#F2F2F2"/>
<path opacity="0.2" d="M142.85 211.405C142.733 211.768 142.477 212.07 142.138 212.245C141.799 212.419 141.404 212.452 141.04 212.337C134.488 212.303 128.448 210.574 123.087 206.598C122.849 206.52 122.635 206.381 122.468 206.195L122.383 206.461C122.267 206.824 122.3 207.219 122.475 207.557C122.65 207.896 122.952 208.152 123.315 208.269C128.677 212.245 134.717 213.974 141.269 214.007C141.632 214.123 142.027 214.09 142.366 213.915C142.705 213.741 142.961 213.439 143.078 213.076L147.416 199.53C147.492 199.29 147.503 199.033 147.448 198.786C147.393 198.54 147.274 198.312 147.102 198.126L142.85 211.405Z" fill="black"/>
<path d="M136.063 198.365L133.181 207.45C133.158 207.522 133.122 207.589 133.074 207.647C133.026 207.704 132.967 207.752 132.9 207.787C132.834 207.822 132.761 207.843 132.686 207.85C132.611 207.857 132.535 207.849 132.463 207.827C132.392 207.804 132.325 207.768 132.267 207.72C132.209 207.671 132.162 207.612 132.127 207.546C132.092 207.479 132.071 207.406 132.064 207.331C132.057 207.257 132.066 207.181 132.088 207.109L132.089 207.105L134.971 198.02C135.018 197.876 135.119 197.756 135.254 197.687C135.388 197.618 135.545 197.604 135.689 197.65C135.833 197.696 135.954 197.797 136.024 197.931C136.094 198.065 136.108 198.221 136.063 198.365Z" fill="white"/>
<path d="M130.822 204.504L130.188 206.503C130.166 206.575 130.13 206.641 130.081 206.699C130.033 206.757 129.974 206.804 129.908 206.839C129.841 206.874 129.768 206.895 129.693 206.902C129.618 206.909 129.543 206.901 129.471 206.878C129.4 206.856 129.333 206.82 129.275 206.772C129.217 206.723 129.17 206.664 129.135 206.598C129.1 206.531 129.079 206.459 129.072 206.384C129.065 206.309 129.073 206.234 129.096 206.162L129.097 206.158L129.731 204.159C129.753 204.087 129.79 204.021 129.838 203.963C129.886 203.905 129.945 203.858 130.012 203.823C130.078 203.788 130.151 203.767 130.226 203.76C130.301 203.753 130.376 203.761 130.448 203.784C130.52 203.806 130.586 203.842 130.644 203.89C130.702 203.939 130.749 203.998 130.784 204.064C130.819 204.131 130.841 204.203 130.847 204.278C130.854 204.353 130.846 204.428 130.824 204.5L130.822 204.504Z" fill="white"/>
<path d="M140.86 199.884L137.978 208.969C137.956 209.041 137.92 209.108 137.871 209.165C137.823 209.223 137.764 209.27 137.698 209.305C137.631 209.34 137.558 209.362 137.483 209.368C137.409 209.375 137.333 209.367 137.261 209.345C137.19 209.322 137.123 209.286 137.065 209.238C137.008 209.19 136.96 209.131 136.925 209.064C136.89 208.998 136.869 208.925 136.862 208.85C136.855 208.775 136.863 208.7 136.886 208.628L136.887 208.624L139.769 199.539C139.791 199.467 139.827 199.4 139.876 199.342C139.924 199.284 139.983 199.237 140.049 199.202C140.116 199.167 140.189 199.145 140.264 199.138C140.339 199.132 140.414 199.14 140.486 199.162C140.558 199.185 140.625 199.221 140.683 199.269C140.74 199.317 140.788 199.376 140.823 199.443C140.858 199.51 140.879 199.583 140.886 199.658C140.892 199.732 140.884 199.808 140.862 199.88L140.86 199.884Z" fill="white"/>
<path d="M138.461 199.125L135.579 208.21C135.557 208.282 135.521 208.348 135.473 208.406C135.425 208.464 135.365 208.512 135.299 208.547C135.232 208.581 135.159 208.603 135.084 208.61C135.01 208.616 134.934 208.608 134.862 208.586C134.79 208.564 134.724 208.527 134.666 208.479C134.608 208.431 134.561 208.372 134.526 208.305C134.491 208.239 134.469 208.166 134.463 208.091C134.456 208.016 134.464 207.941 134.487 207.869L134.488 207.864L137.37 198.779C137.392 198.708 137.429 198.641 137.477 198.583C137.525 198.526 137.584 198.478 137.651 198.443C137.717 198.408 137.79 198.387 137.865 198.38C137.94 198.373 138.015 198.382 138.087 198.404C138.159 198.426 138.225 198.463 138.283 198.511C138.341 198.559 138.388 198.618 138.423 198.684C138.458 198.751 138.48 198.824 138.486 198.898C138.493 198.973 138.485 199.049 138.463 199.12L138.461 199.125Z" fill="white"/>
<path d="M124.472 202.461C125.791 202.461 126.859 201.393 126.859 200.076C126.859 198.759 125.791 197.692 124.472 197.692C123.154 197.692 122.086 198.759 122.086 200.076C122.086 201.393 123.154 202.461 124.472 202.461Z" fill="#CCCCCC"/>
<path d="M177.012 106.981C177.245 106.062 176.361 105.045 175.039 104.71C173.716 104.375 172.454 104.849 172.221 105.768C171.988 106.688 172.871 107.705 174.194 108.04C175.517 108.374 176.778 107.901 177.012 106.981Z" fill="white"/>
<path d="M160.857 106.877C161.09 105.958 160.207 104.941 158.884 104.606C157.561 104.271 156.3 104.745 156.067 105.664C155.833 106.584 156.717 107.6 158.04 107.935C159.362 108.27 160.624 107.797 160.857 106.877Z" fill="#3F3D56"/>
<path d="M180.043 120.371C180.276 119.451 179.393 118.435 178.07 118.1C176.747 117.765 175.486 118.239 175.252 119.158C175.019 120.077 175.903 121.094 177.225 121.429C178.548 121.764 179.81 121.29 180.043 120.371Z" fill="#FF6584"/>
<path d="M183.809 125.419C183.905 124.563 183.499 123.815 182.903 123.749C182.306 123.682 181.745 124.322 181.649 125.178C181.554 126.035 181.959 126.783 182.556 126.849C183.152 126.916 183.713 126.276 183.809 125.419Z" fill="#E6E6E6"/>
<path d="M185.137 135.533C185.233 134.676 184.827 133.928 184.231 133.862C183.635 133.795 183.074 134.435 182.978 135.292C182.882 136.148 183.288 136.896 183.884 136.963C184.48 137.029 185.041 136.389 185.137 135.533Z" fill="#3F3D56"/>
<path d="M168.621 116.26C168.717 115.404 168.312 114.656 167.715 114.589C167.119 114.523 166.558 115.163 166.462 116.019C166.366 116.875 166.772 117.623 167.368 117.69C167.965 117.757 168.526 117.116 168.621 116.26Z" fill="#E6E6E6"/>
<path d="M176.751 113.209C176.847 112.352 176.441 111.604 175.845 111.538C175.249 111.471 174.688 112.111 174.592 112.968C174.496 113.824 174.902 114.572 175.498 114.639C176.094 114.705 176.655 114.065 176.751 113.209Z" fill="#FF6584"/>
<path d="M166.736 104.966C166.832 104.109 166.426 103.361 165.83 103.295C165.233 103.228 164.672 103.868 164.576 104.725C164.481 105.581 164.886 106.329 165.483 106.396C166.079 106.462 166.64 105.822 166.736 104.966Z" fill="#3F3D56"/>
<path d="M26.1762 101.259C26.4094 100.34 25.5261 99.3228 24.2032 98.9879C22.8804 98.653 21.619 99.1268 21.3858 100.046C21.1526 100.965 22.0359 101.982 23.3587 102.317C24.6816 102.652 25.943 102.178 26.1762 101.259Z" fill="white"/>
<path d="M10.0217 101.155C10.2549 100.236 9.37154 99.2188 8.0487 98.8839C6.72586 98.549 5.46443 99.0228 5.23122 99.9421C4.99801 100.861 5.88133 101.878 7.20418 102.213C8.52702 102.548 9.78844 102.074 10.0217 101.155Z" fill="#3F3D56"/>
<path d="M29.2077 114.648C29.4409 113.729 28.5576 112.712 27.2347 112.377C25.9119 112.043 24.6505 112.516 24.4173 113.436C24.184 114.355 25.0674 115.372 26.3902 115.707C27.7131 116.042 28.9745 115.568 29.2077 114.648Z" fill="#FF6584"/>
<path d="M32.9734 119.697C33.0692 118.841 32.6635 118.093 32.0672 118.026C31.4709 117.96 30.9099 118.6 30.8142 119.456C30.7184 120.312 31.1241 121.061 31.7204 121.127C32.3166 121.194 32.8777 120.553 32.9734 119.697Z" fill="#E6E6E6"/>
<path d="M34.3018 129.81C34.3976 128.954 33.9918 128.206 33.3956 128.139C32.7993 128.073 32.2383 128.713 32.1425 129.569C32.0468 130.426 32.4525 131.174 33.0487 131.24C33.645 131.307 34.206 130.667 34.3018 129.81Z" fill="#3F3D56"/>
<path d="M17.7862 110.538C17.8819 109.681 17.4762 108.933 16.88 108.867C16.2837 108.8 15.7227 109.44 15.6269 110.297C15.5311 111.153 15.9369 111.901 16.5331 111.968C17.1294 112.034 17.6904 111.394 17.7862 110.538Z" fill="#E6E6E6"/>
<path d="M25.9158 107.487C26.0116 106.63 25.6059 105.882 25.0096 105.816C24.4133 105.749 23.8523 106.389 23.7565 107.246C23.6608 108.102 24.0665 108.85 24.6628 108.917C25.259 108.983 25.82 108.343 25.9158 107.487Z" fill="#FF6584"/>
<path d="M15.9004 99.2433C15.9962 98.387 15.5905 97.6389 14.9942 97.5724C14.3979 97.5058 13.8369 98.146 13.7412 99.0023C13.6454 99.8586 14.0511 100.607 14.6474 100.673C15.2436 100.74 15.8047 100.1 15.9004 99.2433Z" fill="#3F3D56"/>
<path d="M129.258 146.998C125.321 141.766 123.045 135.915 122.971 129.245C122.844 128.886 122.865 128.49 123.029 128.146C123.194 127.803 123.488 127.538 123.847 127.41L137.268 122.666C137.628 122.54 138.023 122.561 138.367 122.725C138.712 122.889 138.977 123.183 139.105 123.542L145.392 141.295C145.519 141.654 145.498 142.05 145.334 142.393C145.169 142.737 144.875 143.002 144.516 143.13L131.095 147.874C130.735 148 130.34 147.979 129.995 147.815C129.651 147.651 129.386 147.357 129.258 146.998Z" fill="#F2F2F2"/>
<path opacity="0.2" d="M132.288 146.682C131.928 146.808 131.533 146.787 131.189 146.623C130.844 146.459 130.579 146.165 130.452 145.806C126.514 140.574 124.239 134.723 124.164 128.053C124.082 127.816 124.064 127.562 124.111 127.317L123.847 127.41C123.488 127.538 123.194 127.802 123.029 128.146C122.865 128.49 122.844 128.885 122.971 129.245C123.045 135.915 125.321 141.766 129.258 146.998C129.386 147.357 129.651 147.651 129.995 147.815C130.34 147.979 130.735 148 131.095 147.874L144.516 143.13C144.754 143.045 144.965 142.898 145.128 142.705C145.291 142.512 145.401 142.28 145.445 142.031L132.288 146.682Z" fill="black"/>
<path d="M138.576 133.394L129.591 136.598C129.448 136.649 129.291 136.641 129.154 136.576C129.016 136.511 128.911 136.394 128.86 136.251C128.809 136.109 128.816 135.951 128.881 135.814C128.946 135.677 129.063 135.572 129.206 135.521L138.191 132.317C138.262 132.291 138.337 132.28 138.412 132.284C138.487 132.288 138.56 132.306 138.628 132.339C138.696 132.371 138.757 132.416 138.808 132.472C138.858 132.527 138.897 132.592 138.922 132.663C138.948 132.734 138.959 132.809 138.955 132.884C138.951 132.959 138.933 133.032 138.901 133.1C138.868 133.168 138.823 133.229 138.767 133.279C138.712 133.33 138.646 133.369 138.576 133.394Z" fill="white"/>
<path d="M130.512 132.939L128.536 133.644C128.465 133.67 128.39 133.681 128.315 133.677C128.24 133.673 128.166 133.655 128.098 133.623C128.03 133.591 127.969 133.546 127.919 133.49C127.868 133.435 127.829 133.37 127.804 133.299C127.779 133.228 127.767 133.153 127.771 133.078C127.775 133.003 127.793 132.93 127.825 132.862C127.857 132.794 127.903 132.733 127.958 132.682C128.014 132.632 128.079 132.593 128.15 132.568L128.151 132.567L130.128 131.862C130.271 131.812 130.428 131.819 130.565 131.884C130.702 131.949 130.808 132.066 130.859 132.209C130.91 132.352 130.902 132.509 130.837 132.646C130.772 132.783 130.655 132.888 130.512 132.939Z" fill="white"/>
<path d="M140.268 138.129L131.283 141.333C131.212 141.358 131.137 141.369 131.062 141.366C130.987 141.362 130.913 141.344 130.845 141.312C130.777 141.28 130.717 141.234 130.666 141.179C130.616 141.123 130.576 141.058 130.551 140.987C130.526 140.917 130.515 140.842 130.518 140.767C130.522 140.692 130.54 140.618 130.572 140.55C130.605 140.482 130.65 140.421 130.705 140.371C130.761 140.321 130.826 140.282 130.897 140.256L130.898 140.256L139.883 137.052C140.026 137.001 140.183 137.009 140.32 137.074C140.457 137.139 140.563 137.256 140.614 137.398C140.665 137.541 140.657 137.698 140.592 137.835C140.527 137.972 140.41 138.078 140.268 138.129Z" fill="white"/>
<path d="M139.422 135.761L130.437 138.965C130.366 138.991 130.291 139.002 130.216 138.998C130.141 138.994 130.068 138.976 130 138.944C129.932 138.912 129.871 138.867 129.82 138.811C129.77 138.756 129.731 138.691 129.705 138.62C129.68 138.549 129.669 138.474 129.672 138.399C129.676 138.324 129.694 138.251 129.726 138.183C129.759 138.115 129.804 138.054 129.859 138.003C129.915 137.953 129.98 137.914 130.051 137.889L130.052 137.888L139.037 134.684C139.18 134.633 139.337 134.641 139.474 134.706C139.612 134.77 139.718 134.887 139.769 135.03C139.82 135.172 139.812 135.33 139.747 135.467C139.683 135.604 139.566 135.71 139.423 135.761L139.422 135.761Z" fill="white"/>
<path d="M130.2 127.594C131.518 127.594 132.587 126.526 132.587 125.209C132.587 123.893 131.518 122.825 130.2 122.825C128.882 122.825 127.814 123.893 127.814 125.209C127.814 126.526 128.882 127.594 130.2 127.594Z" fill="#CCCCCC"/>
</g>
<defs>
<clipPath id="clip0_852_320">
<rect width="186" height="263" fill="white"/>
</clipPath>
</defs>
</svg>
