<svg width="45" height="40" viewBox="0 0 45 40" fill="none" xmlns="http://www.w3.org/2000/svg">
<path d="M9.2126 40C6.98365 39.9965 4.8472 39.1895 3.27178 37.756C1.69635 36.3226 0.810546 34.3797 0.808608 32.3533V7.64C0.806178 6.43738 1.11966 5.25161 1.72298 4.18134C2.3263 3.11106 3.20201 2.18722 4.27727 1.48667C5.70556 0.524738 7.43507 0.00375569 9.2126 0L36.3972 0C38.1747 0.00422315 39.904 0.525158 41.3326 1.48667C42.4101 2.18572 43.2879 3.10908 43.8926 4.17958C44.4973 5.25007 44.8114 6.4366 44.8086 7.64V32.3533C44.8066 34.3808 43.9198 36.3247 42.3428 37.7584C40.7658 39.192 38.6275 39.9982 36.3972 40H9.2126ZM4.27727 32.3533C4.27921 33.5427 4.79981 34.6829 5.72494 35.5239C6.65007 36.365 7.90427 36.8382 9.2126 36.84H36.3972C37.7069 36.84 38.9629 36.3675 39.8896 35.5263C40.8164 34.6851 41.338 33.5439 41.3399 32.3533V6.66667L25.7419 20.8533C25.358 21.2057 24.9012 21.4854 24.3977 21.6762C23.8942 21.8671 23.3541 21.9654 22.8086 21.9654C22.2631 21.9654 21.723 21.8671 21.2195 21.6762C20.716 21.4854 20.2591 21.2057 19.8753 20.8533L4.27727 6.66667V32.3533ZM9.2126 3.15333C8.46963 3.1566 7.73727 3.31393 7.07127 3.61333L6.2426 4L22.8086 19.0467L39.3746 4L38.5459 3.63333C37.8777 3.33294 37.1427 3.17559 36.3972 3.17333H9.2126V3.15333Z" fill="white"/>
</svg>
