<svg width="62" height="95" viewBox="0 0 62 95" fill="none" xmlns="http://www.w3.org/2000/svg">
<g clip-path="url(#clip0_583_98)">
<path d="M15.5032 94.4641C24.0575 94.4641 31.0002 87.4663 31.0002 78.8439V63.2238H15.5032C6.94896 63.2238 0.00634766 70.2216 0.00634766 78.8439C0.00634766 87.4663 6.94896 94.4641 15.5032 94.4641Z" fill="#0ACF83"/>
<path d="M0.00634766 47.6036C0.00634766 38.9813 6.94896 31.9835 15.5032 31.9835H31.0002V63.2238H15.5032C6.94896 63.2238 0.00634766 56.226 0.00634766 47.6036Z" fill="#A259FF"/>
<path d="M0.00634766 16.3633C0.00634766 7.74099 6.94896 0.743164 15.5032 0.743164H31.0002V31.9835H15.5032C6.94896 31.9835 0.00634766 24.9856 0.00634766 16.3633Z" fill="#F24E1E"/>
<path d="M31 0.743164H46.4969C55.0512 0.743164 61.9938 7.74099 61.9938 16.3633C61.9938 24.9856 55.0512 31.9835 46.4969 31.9835H31V0.743164Z" fill="#FF7262"/>
<path d="M61.9938 47.6036C61.9938 56.226 55.0512 63.2238 46.4969 63.2238C37.9426 63.2238 31 56.226 31 47.6036C31 38.9813 37.9426 31.9835 46.4969 31.9835C55.0512 31.9835 61.9938 38.9813 61.9938 47.6036Z" fill="#1ABCFE"/>
</g>
<defs>
<clipPath id="clip0_583_98">
<rect width="62" height="93.7209" fill="white" transform="translate(0 0.743164)"/>
</clipPath>
</defs>
</svg>
