<svg width="62" height="71" viewBox="0 0 62 71" fill="none" xmlns="http://www.w3.org/2000/svg">
<path d="M5.64229 63.6669L0 4.30506e-07H62L56.3515 63.6568L30.962 70.7381L5.64229 63.6669Z" fill="#E53D20"/>
<path d="M31 65.3256L51.516 59.6035L56.343 5.20575H31V65.3256Z" fill="#F15123"/>
<path d="M31 28.819H20.7292L20.0198 20.8229H31V13.0144H30.9731H11.5371L11.723 15.1092L13.6307 36.6273H31V28.819Z" fill="#EDEDED"/>
<path d="M31.0002 49.0982L30.9661 49.1074L22.3219 46.7591L21.7691 40.5315H17.5687H13.9775L15.065 52.7919L30.9644 57.2322L31.0002 57.2223V49.0982Z" fill="#EDEDED"/>
<path d="M30.9731 28.8191V36.6273H40.5308L39.63 46.7544L30.9731 49.105V57.2286L46.8851 52.7921L47.0018 51.473L48.8259 30.9158L49.0152 28.8191H46.9236H30.9731Z" fill="white"/>
<path d="M30.9731 13.0144V20.8229H49.6965H49.7214L49.8771 19.0677L50.2308 15.1093L50.4164 13.0144H30.9731" fill="white"/>
</svg>
